<svg xmlns="http://www.w3.org/2000/svg" width="1440" height="3120" viewBox="0 0 1440 3120">
  <style>
    .bg{fill:#f4f4f1}.panel{fill:#fff;stroke:#252525;stroke-width:3}.soft{fill:#e5e5e0;stroke:#555;stroke-width:2}.dark{fill:#343434}.line{stroke:#555;stroke-width:3}.t{font:26px Arial,sans-serif;fill:#222}.h{font:bold 42px Arial,sans-serif;fill:#222}.s{font:20px Arial,sans-serif;fill:#444}.inv{fill:#fff}.dash{fill:none;stroke:#777;stroke-width:2;stroke-dasharray:10 8}
  </style>
  <rect class="bg" width="1440" height="3120"/>
  <rect class="panel" x="40" y="30" width="1360" height="90" rx="8"/><rect class="dark" x="70" y="55" width="180" height="42" rx="4"/><text class="t inv" x="92" y="86">LOGO</text><text class="s" x="570" y="84">Menú   Nosotros   Contacto</text><rect class="soft" x="1190" y="50" width="170" height="50" rx="7"/><text class="s" x="1214" y="82">Carrito (0)</text>
  <rect class="panel" x="40" y="145" width="1360" height="500" rx="8"/><text class="s" x="75" y="195">HERO</text><text class="h" x="80" y="285">¿SE TE ANTOJÓ?</text><text class="h" x="80" y="340">PÍDELO AHORA</text><line class="line" x1="80" y1="385" x2="560" y2="385"/><line class="line" x1="80" y1="420" x2="480" y2="420"/><rect class="dark" x="80" y="470" width="220" height="65" rx="6"/><text class="t inv" x="132" y="512">VER MENÚ</text><rect class="soft" x="760" y="185" width="570" height="400" rx="200"/><text class="t" x="925" y="395">PRODUCTO PROTAGONISTA</text>
  <rect class="dark" x="40" y="670" width="1360" height="120" rx="8"/><text class="t inv" x="145" y="740">Preparado al momento</text><text class="t inv" x="590" y="740">Ingredientes frescos</text><text class="t inv" x="1035" y="740">Pedido por WhatsApp</text>
  <text class="h" x="40" y="875">ESPECIALIDADES</text><g class="soft"><rect x="40" y="910" width="420" height="340" rx="8"/><rect x="510" y="910" width="420" height="340" rx="8"/><rect x="980" y="910" width="420" height="340" rx="8"/></g><text class="t" x="130" y="1085">Producto destacado</text><text class="t" x="600" y="1085">Producto destacado</text><text class="t" x="1070" y="1085">Producto destacado</text>
  <text class="h" x="40" y="1345">MENÚ COMPLETO · 30 PRODUCTOS</text><rect class="panel" x="40" y="1380" width="1360" height="90" rx="8"/><text class="t" x="75" y="1435">[ Especialidades ]   Ceviches   Tostadas   Cocteles   Complementos   Bebidas</text>
  <rect class="dash" x="40" y="1500" width="880" height="940" rx="8"/><text class="s" x="65" y="1545">ESPECIALIDADES · 5 PRODUCTOS · CATÁLOGO EN 2 COLUMNAS</text>
  <g class="panel"><rect x="65" y="1580" width="400" height="370" rx="8"/><rect x="495" y="1580" width="400" height="370" rx="8"/><rect x="65" y="1990" width="400" height="370" rx="8"/><rect x="495" y="1990" width="400" height="370" rx="8"/></g>
  <g class="soft"><rect x="85" y="1600" width="360" height="190"/><rect x="515" y="1600" width="360" height="190"/><rect x="85" y="2010" width="360" height="190"/><rect x="515" y="2010" width="360" height="190"/></g>
  <text class="s" x="90" y="1835">Nombre · descripción · $ precio</text><text class="s" x="520" y="1835">Nombre · descripción · $ precio</text><text class="s" x="90" y="1875">[ AGREGAR ]</text><text class="s" x="520" y="1875">[ −  1  + ]</text><text class="s" x="90" y="2245">Nombre · descripción · $ precio</text><text class="s" x="520" y="2245">Nombre · descripción · $ precio</text><text class="s" x="90" y="2285">[ AGREGAR ]</text><text class="s" x="520" y="2285">AGOTADO</text>
  <rect class="panel" x="955" y="1500" width="445" height="650" rx="8"/><text class="h" x="990" y="1570">TU PEDIDO</text><line class="line" x1="990" y1="1610" x2="1360" y2="1610"/><text class="s" x="990" y="1660">Producto × cantidad</text><text class="s" x="1270" y="1660">$---</text><text class="s" x="990" y="1720">Producto × cantidad</text><text class="s" x="1270" y="1720">$---</text><line class="line" x1="990" y1="1770" x2="1360" y2="1770"/><text class="t" x="990" y="1830">TOTAL</text><text class="t" x="1260" y="1830">$---</text><rect class="dark" x="990" y="1880" width="370" height="65" rx="6"/><text class="t inv" x="1080" y="1922">REVISAR PEDIDO</text>
  <rect class="panel" x="40" y="2480" width="1360" height="300" rx="8"/><text class="h" x="80" y="2550">HISTORIA Y PREPARACIÓN</text><line class="line" x1="80" y1="2600" x2="610" y2="2600"/><line class="line" x1="80" y1="2640" x2="540" y2="2640"/><rect class="soft" x="820" y="2520" width="520" height="220"/>
  <rect class="panel" x="40" y="2820" width="1360" height="220" rx="8"/><text class="h" x="80" y="2895">PEDIDO Y DATOS</text><text class="s" x="80" y="2950">El formulario se habilita después de revisar el carrito.</text><rect class="dark" x="1050" y="2880" width="300" height="70" rx="6"/><text class="t inv" x="1110" y="2925">CONTINUAR</text>
  <text class="s" x="40" y="3090">Wireframe low-fi · estructura, jerarquía y comportamiento; no representa diseño visual final.</text>
</svg>
