<svg xmlns="http://www.w3.org/2000/svg" width="390" height="2860" viewBox="0 0 390 2860">
  <style>
    .bg{fill:#f4f4f1}.panel{fill:#fff;stroke:#252525;stroke-width:2}.soft{fill:#e4e4df;stroke:#555;stroke-width:1.5}.dark{fill:#343434}.line{stroke:#555;stroke-width:2}.t{font:16px Arial,sans-serif;fill:#222}.h{font:bold 25px Arial,sans-serif;fill:#222}.s{font:13px Arial,sans-serif;fill:#444}.inv{fill:#fff}.dash{fill:none;stroke:#777;stroke-width:2;stroke-dasharray:7 6}
  </style>
  <rect class="bg" width="390" height="2860"/>
  <rect class="panel" x="12" y="15" width="366" height="64" rx="6"/><rect class="dark" x="28" y="31" width="90" height="31" rx="3"/><text class="s inv" x="49" y="52">LOGO</text><text class="t" x="278" y="54">☰   🛒 0</text>
  <rect class="panel" x="12" y="93" width="366" height="500" rx="7"/><text class="s" x="28" y="123">HERO</text><text class="h" x="28" y="178">¿SE TE ANTOJÓ?</text><text class="h" x="28" y="211">PÍDELO AHORA</text><line class="line" x1="28" y1="245" x2="310" y2="245"/><line class="line" x1="28" y1="270" x2="260" y2="270"/><rect class="soft" x="45" y="305" width="300" height="170" rx="85"/><text class="s" x="110" y="395">PRODUCTO PROTAGONISTA</text><rect class="dark" x="45" y="505" width="300" height="58" rx="6"/><text class="t inv" x="147" y="541">VER MENÚ</text>
  <rect class="dark" x="12" y="610" width="366" height="105" rx="7"/><text class="s inv" x="78" y="645">Preparado al momento</text><text class="s inv" x="78" y="675">Ingredientes frescos · WhatsApp</text>
  <text class="h" x="16" y="770">ESPECIALIDADES</text><rect class="soft" x="16" y="795" width="285" height="230" rx="7"/><text class="t" x="72" y="915">Producto destacado</text><text class="s" x="315" y="915">→</text>
  <text class="h" x="16" y="1085">MENÚ COMPLETO · 30</text><rect class="panel" x="12" y="1110" width="366" height="65" rx="7"/><text class="s" x="28" y="1148">[Especialidades]  Ceviches  Tostadas  →</text>
  <rect class="dash" x="12" y="1190" width="366" height="1090" rx="7"/><text class="s" x="28" y="1225">ESPECIALIDADES · 5 PRODUCTOS · 1 COLUMNA</text>
  <g class="panel"><rect x="28" y="1250" width="334" height="300" rx="7"/><rect x="28" y="1580" width="334" height="300" rx="7"/><rect x="28" y="1910" width="334" height="300" rx="7"/></g>
  <g class="soft"><rect x="44" y="1266" width="302" height="160"/><rect x="44" y="1596" width="302" height="160"/><rect x="44" y="1926" width="302" height="160"/></g>
  <text class="s" x="44" y="1460">Nombre · descripción · $ precio   [AGREGAR]</text><text class="s" x="44" y="1790">Nombre · descripción · $ precio   [− 1 +]</text><text class="s" x="44" y="2120">Nombre · descripción · $ precio   AGOTADO</text>
  <rect class="panel" x="12" y="2310" width="366" height="245" rx="7"/><text class="h" x="28" y="2360">HISTORIA</text><line class="line" x1="28" y1="2390" x2="340" y2="2390"/><line class="line" x1="28" y1="2420" x2="300" y2="2420"/><rect class="soft" x="28" y="2450" width="334" height="80"/>
  <rect class="panel" x="12" y="2580" width="366" height="140" rx="7"/><text class="h" x="28" y="2630">DATOS OPERATIVOS</text><text class="s" x="28" y="2670">Sucursales · horarios · cobertura</text><text class="s" x="28" y="2695">PENDIENTES DE CONFIRMACIÓN</text>
  <rect class="dark" x="12" y="2740" width="366" height="78" rx="7"/><text class="t inv" x="30" y="2787">2 productos · $---        VER PEDIDO</text>
  <text class="s" x="12" y="2848">Barra sticky solo cuando el carrito contiene productos.</text>
</svg>
